<?xml version="1.0" standalone="no"?>
<!DOCTYPE svg PUBLIC "-//W3C//DTD SVG 20010904//EN"
 "http://www.w3.org/TR/2001/REC-SVG-20010904/DTD/svg10.dtd">
<svg version="1.0" xmlns="http://www.w3.org/2000/svg"
 width="188.000000pt" height="188.000000pt" viewBox="0 0 188.000000 188.000000"
 preserveAspectRatio="xMidYMid meet">
<metadata>
Created by potrace 1.10, written by Peter Selinger 2001-2011
</metadata>
<g transform="translate(0.000000,188.000000) scale(0.100000,-0.100000)"
fill="#000000" stroke="none">
<path d="M274 1711 c-61 -28 -120 -86 -149 -146 l-25 -54 0 -568 0 -568 24
-50 c31 -68 109 -137 179 -159 48 -15 109 -17 608 -14 l554 3 51 27 c56 30
102 77 136 141 l23 42 0 580 0 580 -23 43 c-31 59 -94 119 -148 143 -43 18
-74 19 -617 19 -538 0 -574 -2 -613 -19z m395 -338 c38 -29 61 -74 68 -134 15
-129 154 -185 253 -103 29 25 43 60 55 136 10 67 82 128 150 128 40 0 101 -36
124 -73 41 -66 20 -168 -43 -206 -17 -10 -60 -22 -96 -26 -167 -17 -281 -79
-359 -195 -52 -76 -71 -130 -82 -229 -10 -94 -24 -121 -80 -159 -28 -19 -44
-23 -85 -20 -62 5 -97 29 -125 85 -26 53 -19 109 18 154 34 39 58 51 122 60
67 9 99 32 129 90 17 32 21 53 17 79 -16 83 -61 124 -152 136 -70 8 -113 38
-137 96 -32 77 2 160 79 194 39 18 110 12 144 -13z m513 -408 c56 -20 122 -84
144 -141 25 -66 16 -159 -22 -220 -77 -125 -253 -152 -364 -57 -136 116 -111
322 49 405 62 32 123 36 193 13z"/>
</g>
</svg>
